<svg width="397" height="265" viewBox="0 0 397 265" fill="none" xmlns="http://www.w3.org/2000/svg">
<path d="M369.311 99.9581C369.311 99.9581 313.468 38.9207 228.188 18.1423C142.909 -2.63618 130.361 65.3519 106.113 92.1664C81.8663 118.981 37.7167 115.975 16.0723 148.875C-5.57216 181.775 18.2367 239.782 124.295 254.5C230.353 269.218 223.859 212.51 289.659 222.9C355.458 233.288 431.214 177.445 369.311 99.9581Z" fill="#5E94FF"/>
<path opacity="0.7" d="M369.311 99.9581C369.311 99.9581 313.468 38.9207 228.188 18.1423C142.909 -2.63618 130.361 65.3519 106.113 92.1664C81.8663 118.981 37.7167 115.975 16.0723 148.875C-5.57216 181.775 18.2367 239.782 124.295 254.5C230.353 269.218 223.859 212.51 289.659 222.9C355.458 233.288 431.214 177.445 369.311 99.9581Z" fill="white"/>
<path d="M15.7539 203.051H382.528" stroke="#263238" stroke-width="0.529333" stroke-miterlimit="10" stroke-linecap="round" stroke-linejoin="round"/>
<path d="M309.601 71.0032V205.257H363.691V71.0032H309.601ZM359.454 201.391H313.836V74.8694H359.455L359.454 201.391Z" fill="#263238" stroke="#263238" stroke-width="0.529333" stroke-miterlimit="10" stroke-linecap="round" stroke-linejoin="round"/>
<path d="M323.083 86.8307H319.602L317.862 99.2039H324.823L323.083 86.8307Z" fill="white" stroke="#263238" stroke-width="0.529333" stroke-miterlimit="10" stroke-linecap="round" stroke-linejoin="round"/>
<path d="M323.634 83.4281H319.052L319.581 86.9302H323.106L323.634 83.4281Z" fill="white" stroke="#263238" stroke-width="0.529333" stroke-miterlimit="10" stroke-linecap="round" stroke-linejoin="round"/>
<path d="M332.673 99.6321C335.799 99.6321 338.333 97.0982 338.333 93.9719C338.333 90.8457 335.799 88.3118 332.673 88.3118C329.547 88.3118 327.013 90.8457 327.013 93.9719C327.013 97.0982 329.547 99.6321 332.673 99.6321Z" fill="white" stroke="#263238" stroke-width="0.529333" stroke-miterlimit="10" stroke-linecap="round" stroke-linejoin="round"/>
<path d="M357.235 117.284H339.071V135.823H357.235V117.284Z" fill="white" stroke="#263238" stroke-width="0.529333" stroke-miterlimit="10" stroke-linecap="round" stroke-linejoin="round"/>
<path d="M354.082 120.503H342.225V132.605H354.082V120.503Z" fill="white" stroke="#263238" stroke-width="0.529333" stroke-miterlimit="10" stroke-linecap="round" stroke-linejoin="round"/>
<path d="M318.848 118.783H314.354V135.636H318.848V118.783Z" fill="white" stroke="#263238" stroke-width="0.529333" stroke-miterlimit="10" stroke-linecap="round" stroke-linejoin="round"/>
<path d="M323.528 118.783H319.034V135.636H323.528V118.783Z" fill="white" stroke="#263238" stroke-width="0.529333" stroke-miterlimit="10" stroke-linecap="round" stroke-linejoin="round"/>
<path d="M328.26 118.51L323.848 119.366L327.06 135.912L331.472 135.055L328.26 118.51Z" fill="white" stroke="#263238" stroke-width="0.529333" stroke-miterlimit="10" stroke-linecap="round" stroke-linejoin="round"/>
<path d="M354.017 201.345H358.511V184.492H354.017V201.345Z" fill="white" stroke="#263238" stroke-width="0.529333" stroke-miterlimit="10" stroke-linecap="round" stroke-linejoin="round"/>
<path d="M349.335 201.345H353.829V184.492H349.335V201.345Z" fill="white" stroke="#263238" stroke-width="0.529333" stroke-miterlimit="10" stroke-linecap="round" stroke-linejoin="round"/>
<path d="M341.395 200.754L345.807 201.61L349.018 185.065L344.607 184.208L341.395 200.754Z" fill="white" stroke="#263238" stroke-width="0.529333" stroke-miterlimit="10" stroke-linecap="round" stroke-linejoin="round"/>
<path d="M337.1 171.951C340.091 171.951 342.516 168.113 342.516 163.379C342.516 158.644 340.091 154.807 337.1 154.807C334.108 154.807 331.684 158.644 331.684 163.379C331.684 168.113 334.108 171.951 337.1 171.951Z" fill="white" stroke="#263238" stroke-width="0.529333" stroke-miterlimit="10" stroke-linecap="round" stroke-linejoin="round"/>
<path d="M339.217 153.155C339.387 151.627 340.745 145.684 340.745 145.684H337.094H333.443C333.443 145.684 334.802 151.627 334.972 153.155C335.141 154.683 334.292 156.042 334.292 156.042L337.094 158.505L339.896 156.042C339.896 156.042 339.047 154.683 339.217 153.155Z" fill="white" stroke="#263238" stroke-width="0.529333" stroke-miterlimit="10" stroke-linecap="round" stroke-linejoin="round"/>
<path d="M359.455 99.4468H313.837V104.374H359.455V99.4468Z" fill="#263238" stroke="#263238" stroke-width="0.529333" stroke-miterlimit="10" stroke-linecap="round" stroke-linejoin="round"/>
<path d="M359.455 135.827H313.837V140.755H359.455V135.827Z" fill="#263238" stroke="#263238" stroke-width="0.529333" stroke-miterlimit="10" stroke-linecap="round" stroke-linejoin="round"/>
<path d="M359.455 172.208H313.837V177.136H359.455V172.208Z" fill="#263238" stroke="#263238" stroke-width="0.529333" stroke-miterlimit="10" stroke-linecap="round" stroke-linejoin="round"/>
<path d="M75.8424 42.9871H50.542V75.5162H75.8424V42.9871Z" stroke="#263238" stroke-width="0.529333" stroke-miterlimit="10" stroke-linecap="round" stroke-linejoin="round"/>
<path d="M74.2092 45.0869H52.1758V73.4158H74.2092V45.0869Z" stroke="#263238" stroke-width="0.529333" stroke-miterlimit="10" stroke-linecap="round" stroke-linejoin="round"/>
<path d="M66.7494 54.679H59.6367V63.8237H66.7494V54.679Z" stroke="#263238" stroke-width="0.529333" stroke-miterlimit="10" stroke-linecap="round" stroke-linejoin="round"/>
<path d="M45.9421 67.3015H20.6416V99.8306H45.9421V67.3015Z" stroke="#263238" stroke-width="0.529333" stroke-miterlimit="10" stroke-linecap="round" stroke-linejoin="round"/>
<path d="M44.3089 69.4019H22.2754V97.7307H44.3089V69.4019Z" stroke="#263238" stroke-width="0.529333" stroke-miterlimit="10" stroke-linecap="round" stroke-linejoin="round"/>
<path d="M36.848 78.9939H29.7354V88.1387H36.848V78.9939Z" stroke="#263238" stroke-width="0.529333" stroke-miterlimit="10" stroke-linecap="round" stroke-linejoin="round"/>
<path d="M108.208 67.3015H82.9072V99.8306H108.208V67.3015Z" stroke="#263238" stroke-width="0.529333" stroke-miterlimit="10" stroke-linecap="round" stroke-linejoin="round"/>
<path d="M106.575 69.4019H84.541V97.7307H106.575V69.4019Z" stroke="#263238" stroke-width="0.529333" stroke-miterlimit="10" stroke-linecap="round" stroke-linejoin="round"/>
<path d="M99.1136 78.9939H92.001V88.1387H99.1136V78.9939Z" stroke="#263238" stroke-width="0.529333" stroke-miterlimit="10" stroke-linecap="round" stroke-linejoin="round"/>
<path d="M75.8424 80.6365H50.542V99.6385H75.8424V80.6365Z" stroke="#263238" stroke-width="0.529333" stroke-miterlimit="10" stroke-linecap="round" stroke-linejoin="round"/>
<path d="M74.2092 81.8634H52.1758V98.412H74.2092V81.8634Z" stroke="#263238" stroke-width="0.529333" stroke-miterlimit="10" stroke-linecap="round" stroke-linejoin="round"/>
<path d="M66.7494 87.4664H59.6367V92.8085H66.7494V87.4664Z" stroke="#263238" stroke-width="0.529333" stroke-miterlimit="10" stroke-linecap="round" stroke-linejoin="round"/>
<path d="M78.4891 122.184V105.815H66.1953V122.184H78.4891Z" stroke="#263238" stroke-width="0.529333" stroke-miterlimit="10" stroke-linecap="round" stroke-linejoin="round"/>
<path d="M77.6965 121.127V106.872H66.9902V121.127H77.6965Z" stroke="#263238" stroke-width="0.529333" stroke-miterlimit="10" stroke-linecap="round" stroke-linejoin="round"/>
<path d="M74.0703 116.3V111.699H70.6143V116.3H74.0703Z" stroke="#263238" stroke-width="0.529333" stroke-miterlimit="10" stroke-linecap="round" stroke-linejoin="round"/>
<path d="M60.3221 122.184V105.815H48.0283V122.184H60.3221Z" stroke="#263238" stroke-width="0.529333" stroke-miterlimit="10" stroke-linecap="round" stroke-linejoin="round"/>
<path d="M59.5286 121.127V106.872H48.8223V121.127H59.5286Z" stroke="#263238" stroke-width="0.529333" stroke-miterlimit="10" stroke-linecap="round" stroke-linejoin="round"/>
<path d="M55.9033 116.3V111.699H52.4473V116.3H55.9033Z" stroke="#263238" stroke-width="0.529333" stroke-miterlimit="10" stroke-linecap="round" stroke-linejoin="round"/>
<path d="M227.041 56.5438H163.015V144.674H227.041V56.5438Z" fill="#263238" stroke="#263238" stroke-width="0.529333" stroke-miterlimit="10" stroke-linecap="round" stroke-linejoin="round"/>
<path d="M223.992 60.4752H166.064V140.743H223.992V60.4752Z" fill="white" stroke="#263238" stroke-width="0.529333" stroke-miterlimit="10" stroke-linecap="round" stroke-linejoin="round"/>
<path d="M201.133 72.9019L186.848 87.1875" stroke="#263238" stroke-width="0.529333" stroke-miterlimit="10" stroke-linecap="round" stroke-linejoin="round"/>
<path d="M208.593 65.4414L202.562 71.4732" stroke="#263238" stroke-width="0.529333" stroke-miterlimit="10" stroke-linecap="round" stroke-linejoin="round"/>
<path d="M191.45 77.5049L182.879 86.0764" stroke="#263238" stroke-width="0.529333" stroke-miterlimit="10" stroke-linecap="round" stroke-linejoin="round"/>
<path d="M189.387 133.854L186.848 136.393" stroke="#263238" stroke-width="0.529333" stroke-miterlimit="10" stroke-linecap="round" stroke-linejoin="round"/>
<path d="M208.593 114.648L190.815 132.425" stroke="#263238" stroke-width="0.529333" stroke-miterlimit="10" stroke-linecap="round" stroke-linejoin="round"/>
<path d="M191.45 126.711L182.879 135.282" stroke="#263238" stroke-width="0.529333" stroke-miterlimit="10" stroke-linecap="round" stroke-linejoin="round"/>
<path d="M197.149 103.897C197.149 102.829 196.284 101.964 195.216 101.964C194.149 101.964 193.283 102.829 193.283 103.897C193.283 104.965 194.149 105.83 195.216 105.83C196.284 105.83 197.149 104.964 197.149 103.897Z" fill="#263238" stroke="#263238" stroke-width="0.529333" stroke-miterlimit="10" stroke-linecap="round" stroke-linejoin="round"/>
<path d="M223.992 103.622H166.064V107.173H223.992V103.622Z" fill="#263238" stroke="#263238" stroke-width="0.529333" stroke-miterlimit="10" stroke-linecap="round" stroke-linejoin="round"/>
<path d="M228.924 51.2711H161.508V58.8035H228.924V51.2711Z" fill="#263238" stroke="#263238" stroke-width="0.529333" stroke-miterlimit="10" stroke-linecap="round" stroke-linejoin="round"/>
<path d="M228.924 142.039H161.508V149.571H228.924V142.039Z" fill="#263238" stroke="#263238" stroke-width="0.529333" stroke-miterlimit="10" stroke-linecap="round" stroke-linejoin="round"/>
<path d="M252.652 40.7252H137.404V42.9849H252.652V40.7252Z" fill="white" stroke="#263238" stroke-width="0.529333" stroke-miterlimit="10" stroke-linecap="round" stroke-linejoin="round"/>
<path d="M145.574 157.856H143.923C142.611 157.856 141.547 156.793 141.547 155.481V41.2176C141.547 39.9059 142.61 38.8419 143.923 38.8419H145.574C146.886 38.8419 147.95 39.9053 147.95 41.2176V155.481C147.95 156.793 146.886 157.856 145.574 157.856Z" fill="white" stroke="#263238" stroke-width="0.529333" stroke-miterlimit="10" stroke-linecap="round" stroke-linejoin="round"/>
<path d="M151.6 157.856H149.949C148.637 157.856 147.573 156.793 147.573 155.481V41.2176C147.573 39.9059 148.637 38.8419 149.949 38.8419H151.6C152.913 38.8419 153.976 39.9053 153.976 41.2176V155.481C153.976 156.793 152.912 157.856 151.6 157.856Z" fill="white" stroke="#263238" stroke-width="0.529333" stroke-miterlimit="10" stroke-linecap="round" stroke-linejoin="round"/>
<path d="M157.627 157.856H155.975C154.664 157.856 153.6 156.793 153.6 155.481V41.2176C153.6 39.9059 154.663 38.8419 155.975 38.8419H157.627C158.938 38.8419 160.002 39.9053 160.002 41.2176V155.481C160.002 156.793 158.938 157.856 157.627 157.856Z" fill="white" stroke="#263238" stroke-width="0.529333" stroke-miterlimit="10" stroke-linecap="round" stroke-linejoin="round"/>
<path d="M163.652 157.856H162.001C160.689 157.856 159.625 156.793 159.625 155.481V41.2176C159.625 39.9059 160.688 38.8419 162.001 38.8419H163.652C164.964 38.8419 166.028 39.9053 166.028 41.2176V155.481C166.028 156.793 164.964 157.856 163.652 157.856Z" fill="white" stroke="#263238" stroke-width="0.529333" stroke-miterlimit="10" stroke-linecap="round" stroke-linejoin="round"/>
<path d="M228.432 157.856H226.781C225.469 157.856 224.405 156.793 224.405 155.481V41.2176C224.405 39.9059 225.469 38.8419 226.781 38.8419H228.432C229.744 38.8419 230.808 39.9053 230.808 41.2176V155.481C230.808 156.793 229.744 157.856 228.432 157.856Z" fill="white" stroke="#263238" stroke-width="0.529333" stroke-miterlimit="10" stroke-linecap="round" stroke-linejoin="round"/>
<path d="M234.458 157.856H232.806C231.495 157.856 230.431 156.793 230.431 155.481V41.2176C230.431 39.9059 231.494 38.8419 232.806 38.8419H234.458C235.77 38.8419 236.834 39.9053 236.834 41.2176V155.481C236.834 156.793 235.77 157.856 234.458 157.856Z" fill="white" stroke="#263238" stroke-width="0.529333" stroke-miterlimit="10" stroke-linecap="round" stroke-linejoin="round"/>
<path d="M240.484 157.856H238.833C237.52 157.856 236.457 156.793 236.457 155.481V41.2176C236.457 39.9059 237.52 38.8419 238.833 38.8419H240.484C241.796 38.8419 242.86 39.9053 242.86 41.2176V155.481C242.86 156.793 241.796 157.856 240.484 157.856Z" fill="white" stroke="#263238" stroke-width="0.529333" stroke-miterlimit="10" stroke-linecap="round" stroke-linejoin="round"/>
<path d="M246.51 157.856H244.858C243.546 157.856 242.482 156.793 242.482 155.481V41.2176C242.482 39.9059 243.546 38.8419 244.858 38.8419H246.51C247.821 38.8419 248.885 39.9053 248.885 41.2176V155.481C248.885 156.793 247.822 157.856 246.51 157.856Z" fill="white" stroke="#263238" stroke-width="0.529333" stroke-miterlimit="10" stroke-linecap="round" stroke-linejoin="round"/>
<path d="M127.578 167.894C127.578 167.894 128.349 146.118 130.855 145.54C133.361 144.962 139.914 147.082 160.923 146.311C181.931 145.54 193.111 146.119 193.882 146.697C194.653 147.275 197.351 179.848 196.195 180.234C195.038 180.619 170.946 178.114 160.923 178.306C150.901 178.499 130.663 180.234 128.928 179.848C127.193 179.462 127.578 167.894 127.578 167.894Z" fill="#5E94FF" stroke="#263238" stroke-width="0.529333" stroke-miterlimit="10" stroke-linecap="round" stroke-linejoin="round"/>
<path d="M261.782 167.894C261.782 167.894 261.011 146.118 258.505 145.54C256 144.962 249.446 147.082 228.438 146.311C207.429 145.54 196.249 146.119 195.479 146.697C194.708 147.275 195.038 179.848 196.195 180.234C197.352 180.619 218.415 178.114 228.438 178.306C238.46 178.499 258.698 180.234 260.433 179.848C262.167 179.463 261.782 167.894 261.782 167.894Z" fill="#5E94FF" stroke="#263238" stroke-width="0.529333" stroke-miterlimit="10" stroke-linecap="round" stroke-linejoin="round"/>
<path d="M265.39 201.628H127.771V210.494H265.39V201.628Z" fill="#5E94FF" stroke="#263238" stroke-width="0.529333" stroke-miterlimit="10" stroke-linecap="round" stroke-linejoin="round"/>
<path d="M197.224 178.113H127.771V193.415H197.224V178.113Z" fill="#5E94FF" stroke="#263238" stroke-width="0.529333" stroke-miterlimit="10" stroke-linecap="round" stroke-linejoin="round"/>
<path d="M264.876 178.113H196.974V193.415H264.876V178.113Z" fill="#5E94FF" stroke="#263238" stroke-width="0.529333" stroke-miterlimit="10" stroke-linecap="round" stroke-linejoin="round"/>
<path d="M197.224 186.787H127.771V202.089H197.224V186.787Z" fill="#5E94FF" stroke="#263238" stroke-width="0.529333" stroke-miterlimit="10" stroke-linecap="round" stroke-linejoin="round"/>
<path d="M264.876 186.787H196.974V202.089H264.876V186.787Z" fill="#5E94FF" stroke="#263238" stroke-width="0.529333" stroke-miterlimit="10" stroke-linecap="round" stroke-linejoin="round"/>
<path d="M149.825 149.776C149.825 149.776 143.272 155.172 137.104 155.366C130.936 155.558 128.238 154.016 124.576 155.944C120.914 157.871 131.129 179.651 134.598 180.807C138.067 181.964 156.571 177.724 158.691 176.952C160.811 176.182 153.872 157.1 152.908 154.016C151.945 150.932 151.945 148.812 149.825 149.776Z" fill="#263238" stroke="#263238" stroke-width="0.529333" stroke-miterlimit="10" stroke-linecap="round" stroke-linejoin="round"/>
<path d="M159.959 156.719C159.959 156.719 153.214 154.599 152.25 155.177C151.286 155.755 153.599 167.127 154.177 170.211C154.755 173.295 153.599 177.728 154.755 178.306C155.912 178.884 178.655 179.656 181.739 179.27C184.823 178.885 178.462 162.116 177.884 157.298C177.306 152.479 177.691 153.057 175.378 153.828C173.066 154.599 165.163 156.719 159.959 156.719Z" fill="white" stroke="#263238" stroke-width="0.529333" stroke-miterlimit="10" stroke-linecap="round" stroke-linejoin="round"/>
<path d="M239.745 149.776C239.745 149.776 246.298 155.172 252.466 155.366C258.634 155.558 261.332 154.016 264.994 155.944C268.656 157.871 258.441 179.651 254.972 180.807C251.502 181.964 232.999 177.724 230.879 176.952C228.759 176.182 235.698 157.1 236.662 154.016C237.625 150.932 237.625 148.812 239.745 149.776Z" fill="#263238" stroke="#263238" stroke-width="0.529333" stroke-miterlimit="10" stroke-linecap="round" stroke-linejoin="round"/>
<path d="M229.61 156.719C229.61 156.719 236.356 154.599 237.32 155.177C238.284 155.755 235.971 167.127 235.393 170.211C234.815 173.295 235.971 177.728 234.815 178.306C233.658 178.884 210.915 179.656 207.831 179.27C204.747 178.885 211.107 162.116 211.686 157.298C212.264 152.479 211.879 153.057 214.192 153.828C216.504 154.599 224.406 156.719 229.61 156.719Z" fill="white" stroke="#263238" stroke-width="0.529333" stroke-miterlimit="10" stroke-linecap="round" stroke-linejoin="round"/>
<path d="M127.436 216.469H122.563C121.301 216.469 120.277 215.446 120.277 214.184V167.894C120.277 166.406 121.484 165.2 122.972 165.2H127.028C128.516 165.2 129.722 166.406 129.722 167.894V214.184C129.722 215.445 128.699 216.469 127.436 216.469Z" fill="#5E94FF" stroke="#263238" stroke-width="0.529333" stroke-miterlimit="10" stroke-linecap="round" stroke-linejoin="round"/>
<path d="M268.052 216.469H263.179C261.917 216.469 260.894 215.446 260.894 214.184V167.894C260.894 166.406 262.1 165.2 263.588 165.2H267.644C269.132 165.2 270.338 166.406 270.338 167.894V214.184C270.338 215.445 269.315 216.469 268.052 216.469Z" fill="#5E94FF" stroke="#263238" stroke-width="0.529333" stroke-miterlimit="10" stroke-linecap="round" stroke-linejoin="round"/>
<path d="M306.225 188.268C306.04 186.802 300.475 184.969 300.475 184.969L292.87 185.329L285.265 184.969C285.265 184.969 279.7 186.802 279.515 188.268C279.33 189.734 276.176 211.175 276.176 211.175C276.176 211.175 282.853 213.191 290.273 213.191H292.87H295.467C302.886 213.191 309.564 211.175 309.564 211.175C309.564 211.175 306.411 189.734 306.225 188.268Z" fill="white" stroke="#263238" stroke-width="0.529333" stroke-miterlimit="10" stroke-linecap="round" stroke-linejoin="round"/>
<path d="M292.87 187.086C298.138 187.086 302.409 185.44 302.409 183.41C302.409 181.379 298.138 179.733 292.87 179.733C287.601 179.733 283.33 181.379 283.33 183.41C283.33 185.44 287.601 187.086 292.87 187.086Z" fill="white" stroke="#263238" stroke-width="0.529333" stroke-miterlimit="10" stroke-linecap="round" stroke-linejoin="round"/>
<path d="M274.725 176.207L277.991 180.839C277.991 183.12 284.652 184.969 292.869 184.969C301.086 184.969 307.747 183.12 307.747 180.839L311.014 176.207H274.725Z" fill="white" stroke="#263238" stroke-width="0.529333" stroke-miterlimit="10" stroke-linecap="round" stroke-linejoin="round"/>
<path d="M292.869 180.098C302.89 180.098 311.014 178.356 311.014 176.207C311.014 174.058 302.89 172.316 292.869 172.316C282.848 172.316 274.725 174.058 274.725 176.207C274.725 178.356 282.848 180.098 292.869 180.098Z" fill="white" stroke="#263238" stroke-width="0.529333" stroke-miterlimit="10" stroke-linecap="round" stroke-linejoin="round"/>
<path d="M292.906 175.249L295.358 147.968L273.492 128.554" stroke="#263238" stroke-width="1.05867" stroke-miterlimit="10" stroke-linecap="round" stroke-linejoin="round"/>
<path d="M273.762 128.713C274.453 128.301 274.995 127.458 275.131 126.418C275.337 124.851 274.551 123.456 273.376 123.302C272.201 123.147 271.082 124.293 270.876 125.859C270.739 126.899 271.045 127.854 271.606 128.43C269.334 128.956 267.296 131.933 266.794 135.752C266.718 136.337 266.683 136.91 266.683 137.469L276.184 138.717C276.328 138.177 276.443 137.614 276.52 137.029C277.022 133.21 275.822 129.808 273.762 128.713Z" fill="white" stroke="#263238" stroke-width="0.529333" stroke-miterlimit="10" stroke-linecap="round" stroke-linejoin="round"/>
<path d="M299.036 173.921H286.774V176.578H299.036V173.921Z" fill="white" stroke="#263238" stroke-width="0.529333" stroke-miterlimit="10" stroke-linecap="round" stroke-linejoin="round"/>
<path d="M235.143 208.281L239.214 228.23H238.094L231.683 208.587L235.143 208.281Z" fill="#263238" stroke="#263238" stroke-width="0.529333" stroke-miterlimit="10" stroke-linecap="round" stroke-linejoin="round"/>
<path d="M160.744 208.281L156.673 228.23H157.792L164.205 208.587L160.744 208.281Z" fill="#263238" stroke="#263238" stroke-width="0.529333" stroke-miterlimit="10" stroke-linecap="round" stroke-linejoin="round"/>
<path d="M157.386 217.442L153.314 237.39H154.434L160.846 217.747L157.386 217.442Z" fill="#263238" stroke="#263238" stroke-width="0.529333" stroke-miterlimit="10" stroke-linecap="round" stroke-linejoin="round"/>
<path d="M239.215 217.442L243.286 237.39H242.166L235.754 217.747L239.215 217.442Z" fill="#263238" stroke="#263238" stroke-width="0.529333" stroke-miterlimit="10" stroke-linecap="round" stroke-linejoin="round"/>
<path d="M252.817 216.469L245.725 205.676H149.556L142.464 216.469H252.817Z" fill="white" stroke="#263238" stroke-width="0.529333" stroke-miterlimit="10" stroke-linecap="round" stroke-linejoin="round"/>
<path d="M252.668 216.469H142.464V218.397H252.668V216.469Z" fill="#263238" stroke="#263238" stroke-width="0.529333" stroke-miterlimit="10" stroke-linecap="round" stroke-linejoin="round"/>
<path d="M200.785 211.615L199.827 212.196H193.042L192.085 211.615C191.095 211.014 190.025 210.567 188.957 210.119C188.075 209.749 187.538 208.899 187.768 208.014L189.95 199.634H202.92L205.102 208.014C205.332 208.899 204.795 209.749 203.913 210.119C202.844 210.567 201.775 211.014 200.785 211.615Z" fill="white" stroke="#263238" stroke-width="0.529333" stroke-miterlimit="10" stroke-linecap="round" stroke-linejoin="round"/>
<path d="M199.828 212.196H193.043C192.3 212.196 191.748 210.881 191.909 209.493L193.048 199.634H199.822L200.961 209.493C201.121 210.881 200.57 212.196 199.828 212.196Z" fill="white" stroke="#263238" stroke-width="0.529333" stroke-miterlimit="10" stroke-linecap="round" stroke-linejoin="round"/>
<path d="M189.95 199.634L187.955 196.65L191.724 198.692L192.195 196.022L193.294 196.337L192.509 193.353L195.65 195.708L198.006 190.683L198.477 195.865L201.46 194.295L200.675 196.65L204.129 195.237L202.245 197.907L203.815 198.064L202.92 199.634H189.95Z" fill="#263238" stroke="#263238" stroke-width="0.529333" stroke-miterlimit="10" stroke-linecap="round" stroke-linejoin="round"/>
<path d="M87.9232 136.391L87.9242 136.389C87.9316 136.37 87.9226 136.348 87.9041 136.34C87.885 136.332 87.8628 136.341 87.8549 136.36C86.7189 138.983 85.9207 141.736 85.2543 144.513C84.6111 147.298 84.1448 150.123 83.8192 152.965L83.616 155.101C83.5847 155.457 83.5461 155.813 83.5202 156.17L83.4619 157.242C83.4312 157.957 83.3873 158.672 83.3672 159.387L83.3868 161.534L83.4106 162.607C83.4265 162.964 83.4519 163.322 83.4762 163.678C83.5302 164.392 83.5736 165.106 83.6393 165.818C83.7764 167.241 83.9902 168.657 84.2104 170.066C84.2131 170.084 84.2289 170.098 84.2475 170.098C84.2681 170.098 84.2851 170.081 84.2851 170.06V170.058C84.2814 169.343 84.2512 168.631 84.2353 167.919C84.2146 167.207 84.1527 166.499 84.1628 165.787C84.166 165.076 84.1474 164.366 84.1395 163.656L84.1199 162.592L84.139 161.528L84.1485 159.401L84.2062 157.274L84.2284 156.21C84.2422 155.856 84.2686 155.502 84.2882 155.148L84.419 153.023C84.6678 150.196 85.0563 147.378 85.6227 144.593C86.1864 141.811 86.8851 139.04 87.9232 136.391Z" fill="#263238"/>
<path d="M88.2285 147.515C88.2338 147.496 88.2242 147.475 88.2052 147.468C88.1856 147.461 88.1644 147.472 88.1576 147.491C87.5451 149.259 87.0565 151.067 86.6431 152.894C86.2482 154.725 85.9381 156.579 85.7491 158.447C85.5601 160.308 85.3521 162.172 85.3267 164.044C85.2981 165.915 85.3277 167.788 85.5257 169.657C85.5278 169.675 85.5416 169.689 85.559 169.691C85.5797 169.693 85.5982 169.678 85.6009 169.657C85.8168 167.793 85.9492 165.934 86.0778 164.076C86.2096 162.218 86.2276 160.355 86.3488 158.497C86.461 156.644 86.6934 154.799 87.0126 152.966C87.3244 151.133 87.714 149.306 88.2285 147.515Z" fill="#263238"/>
<path d="M94.396 151.428C94.3848 151.411 94.3616 151.406 94.3441 151.417C92.8006 152.394 91.4238 153.625 90.2206 155.012C89.6293 155.716 89.0793 156.453 88.6082 157.254L88.2769 157.879L88.0175 158.529C87.9243 158.744 87.8587 158.966 87.7915 159.187C87.7248 159.409 87.6501 159.629 87.5903 159.853C87.1272 161.64 86.8207 163.462 86.737 165.292C86.6624 167.122 86.6973 168.955 86.9419 170.771C86.9445 170.789 86.9588 170.802 86.9768 170.804C86.9975 170.806 87.0155 170.79 87.0171 170.769L87.4871 165.346C87.6745 163.553 87.7893 161.749 88.1742 159.998C88.2229 159.78 88.2859 159.566 88.3409 159.35C88.397 159.134 88.451 158.917 88.5309 158.711L88.7511 158.084L89.0343 157.492C89.452 156.708 89.9628 155.959 90.5117 155.249C91.6133 153.827 92.9091 152.531 94.3838 151.48L94.3859 151.478C94.4023 151.467 94.4065 151.445 94.396 151.428Z" fill="#263238"/>
<path d="M91.4107 158.396C90.5702 158.939 90.008 159.792 89.5358 160.65C89.0854 161.528 88.7302 162.458 88.4851 163.411C88.4115 163.648 88.3533 163.887 88.302 164.128L88.132 164.849C88.0452 165.333 87.9775 165.822 87.9499 166.313C87.9436 166.806 87.9293 167.297 87.9627 167.787C88.0034 168.278 88.059 168.767 88.1559 169.252C88.1596 169.266 88.1707 169.279 88.186 169.282C88.2067 169.286 88.2268 169.273 88.231 169.252C88.3501 168.768 88.4279 168.289 88.4909 167.81C88.5672 167.333 88.6413 166.858 88.6984 166.384C88.7683 165.911 88.8308 165.439 88.8673 164.962C88.9334 164.492 88.9684 164.012 89.0711 163.547C89.2362 162.607 89.5078 161.689 89.8751 160.812C90.2409 159.941 90.7173 159.074 91.4494 158.461L91.4552 158.456C91.4695 158.444 91.4727 158.423 91.4626 158.407C91.451 158.39 91.4282 158.385 91.4107 158.396Z" fill="#263238"/>
<path d="M82.7615 163.829C82.5588 161.421 82.1618 159.038 81.7865 156.655C81.4101 154.273 80.9951 151.897 80.5589 149.525C80.1074 147.157 79.6358 144.793 79.125 142.438C79.1207 142.418 79.1017 142.405 79.0816 142.409C79.0609 142.412 79.0477 142.432 79.0514 142.453C79.4632 144.826 79.8364 147.206 80.1884 149.588C80.55 151.969 80.8898 154.352 81.191 156.74C81.4853 159.129 81.7145 161.523 82.0141 163.908L82.8949 171.075C82.897 171.093 82.9118 171.107 82.9304 171.109C82.951 171.11 82.9685 171.093 82.9695 171.073C82.9971 170.469 82.9976 169.865 83.0124 169.26C83.0177 168.655 82.9881 168.052 82.9769 167.447C82.9552 166.237 82.852 165.033 82.7615 163.829Z" fill="#263238"/>
<path d="M81.3181 163.794C81.1894 162.84 81.0142 161.892 80.8321 160.947L80.4944 159.542C80.3838 159.073 80.279 158.603 80.1414 158.14C79.6607 156.275 79.0472 154.442 78.3009 152.665L78.0124 152.003L77.6916 151.354C77.4873 150.918 77.2406 150.502 77.0067 150.081C76.5033 149.261 75.9808 148.442 75.2689 147.777C75.2546 147.764 75.2318 147.764 75.2175 147.778C75.2027 147.792 75.2022 147.816 75.2164 147.831L75.2202 147.834C75.8781 148.517 76.3577 149.359 76.8097 150.191C77.0194 150.619 77.2406 151.04 77.4195 151.482L77.7022 152.137L77.9526 152.806C78.6195 154.589 79.1547 156.421 79.557 158.283C79.7767 159.21 79.9217 160.154 80.1011 161.088L80.3266 162.499C80.4082 162.968 80.5087 163.434 80.5749 163.906C80.7252 164.848 80.8983 165.787 81.0624 166.729C81.2085 167.673 81.3811 168.616 81.5801 169.56C81.5838 169.577 81.5992 169.591 81.6172 169.591C81.6378 169.591 81.6547 169.574 81.6553 169.553C81.6595 168.592 81.6373 167.629 81.588 166.668C81.5319 165.707 81.4181 164.752 81.3181 163.794Z" fill="#263238"/>
<path d="M79.3251 163.917C78.8788 162.654 78.3627 161.417 77.8006 160.205C77.2236 158.999 76.6 157.816 75.8828 156.69C75.8717 156.674 75.8489 156.667 75.832 156.677C75.814 156.688 75.8082 156.711 75.8188 156.729C76.4455 157.899 76.9753 159.12 77.4554 160.354C77.944 161.585 78.3844 162.835 78.7539 164.104C79.1303 165.373 79.4002 166.665 79.7374 167.939C80.0921 169.211 80.379 170.498 80.7701 171.787C80.7749 171.802 80.7892 171.814 80.8061 171.815C80.8268 171.815 80.8442 171.798 80.8448 171.777C80.8638 170.432 80.7315 169.088 80.47 167.772C80.2345 166.447 79.7686 165.179 79.3251 163.917Z" fill="#263238"/>
<path d="M79.2429 168.125C79.0148 167.334 78.6252 166.597 78.1832 165.902C77.7486 165.204 77.2447 164.545 76.6407 163.986C76.3295 163.716 76.0114 163.456 75.6593 163.246C75.3126 163.029 74.9453 162.846 74.5467 162.742C74.5292 162.738 74.5107 162.747 74.5033 162.764C74.4948 162.783 74.5033 162.805 74.5223 162.813L74.5266 162.815C75.2481 163.136 75.8579 163.667 76.3729 164.249C76.8953 164.832 77.3119 165.501 77.6592 166.197C78.0244 166.888 78.2134 167.653 78.531 168.365C78.6713 168.73 78.8105 169.098 78.9724 169.463C79.1101 169.835 79.2625 170.206 79.4563 170.575L79.4573 170.578C79.4637 170.589 79.4758 170.598 79.4896 170.598C79.5108 170.599 79.5288 170.583 79.5298 170.561C79.5473 170.149 79.523 169.739 79.4838 169.33C79.425 168.926 79.3393 168.524 79.2429 168.125Z" fill="#263238"/>
<path d="M79.3918 145.885C79.3918 145.885 75.4467 144.974 74.5362 140.725C73.6258 136.476 76.5593 138.297 73.9291 131.621C71.2988 124.944 71.906 123.427 72.8164 121.505C73.7269 119.583 74.2329 120.19 75.0418 122.718C75.8511 125.248 78.7847 129.193 79.8973 136.577C81.0105 143.963 79.3918 145.885 79.3918 145.885Z" fill="#5E94FF"/>
<path d="M87.1813 138.702C87.1813 138.702 84.5511 137.792 84.45 132.835C84.3488 127.878 86.372 128.889 86.6753 122.718C86.9786 116.548 87.3835 112.197 88.4962 112.096C89.6088 111.995 92.5429 115.131 93.5545 122.01C94.566 128.889 92.2396 133.441 90.216 135.465C88.1929 137.488 87.1813 138.702 87.1813 138.702Z" fill="#5E94FF"/>
<path d="M77.9752 151.853C77.9752 151.853 77.368 148.211 76.1543 146.491C74.9405 144.772 72.3102 143.254 70.5904 139.916C68.8706 136.577 66.9486 134.959 67.0497 139.714C67.1508 144.468 69.2756 146.896 71.9053 148.515C74.5356 150.133 77.9752 151.853 77.9752 151.853Z" fill="#5E94FF"/>
<path d="M76.8625 158.125C76.8625 158.125 74.4344 153.472 70.8942 150.032C67.3535 146.592 64.5211 144.873 65.5326 146.592C66.5442 148.312 67.7585 148.211 69.4778 151.246C71.1976 154.28 70.6915 156.506 73.1196 158.226C75.5476 159.946 76.8625 158.125 76.8625 158.125Z" fill="#5E94FF"/>
<path d="M76.5595 164.094C76.4584 163.79 76.3573 161.565 72.9177 159.744C69.4781 157.923 66.2412 158.631 66.6456 159.541C67.05 160.452 69.1748 161.97 71.299 162.88C73.4237 163.79 76.5595 164.094 76.5595 164.094Z" fill="#5E94FF"/>
<path d="M86.9791 152.055C86.9791 152.055 85.4615 150.133 86.2708 146.087C87.0802 142.04 88.9011 143.052 90.9242 140.928C92.9473 138.803 92.5429 138.499 94.566 136.274C96.5891 134.049 98.41 132.835 99.2194 133.745C100.029 134.655 98.815 137.488 97.6007 139.107C96.3869 140.725 94.4649 141.535 93.5545 143.558C92.644 145.581 93.0484 148.818 90.722 150.335C88.3951 151.853 86.9791 152.055 86.9791 152.055Z" fill="#5E94FF"/>
<path d="M92.0371 153.168C92.0371 153.168 95.6789 149.02 98.3092 145.986C100.939 142.951 101.951 140.624 102.052 142.647C102.153 144.67 102.963 146.289 100.838 148.919C98.7136 151.55 92.0371 153.168 92.0371 153.168Z" fill="#5E94FF"/>
<path d="M90.1144 159.845C90.1144 159.845 90.0133 158.226 95.7793 154.483C101.545 150.74 103.973 150.032 103.366 151.55C102.759 153.067 100.23 154.584 97.4991 157.316C94.7677 160.047 90.1144 159.845 90.1144 159.845Z" fill="#5E94FF"/>
<path d="M79.6325 145.453C79.6325 145.453 78.279 138.196 76.8631 133.037C75.4466 127.877 74.5361 124.742 74.5361 124.742" stroke="#263238" stroke-width="0.529333" stroke-miterlimit="10" stroke-linecap="round" stroke-linejoin="round"/>
<path d="M86.9482 138.778C86.9482 138.778 89.407 130.913 90.2164 126.158C91.0257 121.404 90.1152 117.863 89.7103 115.739" stroke="#263238" stroke-width="0.529333" stroke-miterlimit="10" stroke-linecap="round" stroke-linejoin="round"/>
<path d="M77.6559 151.701C77.6559 151.701 76.1542 149.02 73.9284 146.39C71.703 143.76 69.9832 142.344 68.9717 139.815" stroke="#263238" stroke-width="0.529333" stroke-miterlimit="10" stroke-linecap="round" stroke-linejoin="round"/>
<path d="M86.9785 152.055C86.9785 152.055 87.7879 147.2 89.7099 144.67C91.6319 142.141 95.4759 138.196 96.9935 135.667" stroke="#263238" stroke-width="0.529333" stroke-miterlimit="10" stroke-linecap="round" stroke-linejoin="round"/>
<path d="M76.3215 163.983C76.3215 163.983 72.9173 161.767 70.4893 160.553" stroke="#263238" stroke-width="0.529333" stroke-miterlimit="10" stroke-linecap="round" stroke-linejoin="round"/>
<path d="M95.8126 184.374C95.5849 178.235 88.7645 174.143 88.7645 174.143H84.4494H82.6258H78.3107C78.3107 174.143 71.4902 178.235 71.2626 184.374C71.035 190.512 78.993 213.021 78.993 213.021H82.6258H84.4494H88.0822C88.0822 213.021 96.0396 190.512 95.8126 184.374Z" fill="#263238" stroke="#263238" stroke-width="0.529333" stroke-miterlimit="10" stroke-linecap="round" stroke-linejoin="round"/>
<path d="M90.1102 168.107H76.7715L78.3103 174.143H88.5709L90.1102 168.107Z" fill="#263238" stroke="#263238" stroke-width="0.529333" stroke-miterlimit="10" stroke-linecap="round" stroke-linejoin="round"/>
</svg>
