<svg width="51" height="44" viewBox="0 0 233 176" fill="none" xmlns="http://www.w3.org/2000/svg">
<circle cx="88" cy="88" r="88" fill="#4B87FF"/>
<path d="M52.2999 85.7244L52.2998 85.7244C48.5667 82.0128 48.5667 75.9873 52.2998 72.2756C56.0218 68.5751 62.048 68.5751 65.7699 72.2756L91.2209 97.579L164.951 24.2753L164.951 24.2753C168.673 20.5749 174.699 20.5749 178.421 24.2753C182.154 27.9869 182.154 34.0131 178.421 37.7247L126.275 89.5694C129.081 89.2301 132.009 90.1317 134.165 92.2743L134.165 92.2744L139.503 97.5801L213.23 24.2758C213.23 24.2757 213.23 24.2756 213.23 24.2755C216.952 20.5746 222.978 20.5751 226.7 24.2752M52.2999 85.7244L224.232 26.7573M52.2999 85.7244L84.4855 117.724C84.4857 117.724 84.4858 117.724 84.486 117.724C86.2759 119.504 88.6991 120.5 91.221 120.5C93.7428 120.5 96.166 119.504 97.956 117.724C97.9561 117.724 97.9562 117.724 97.9564 117.724L117.968 97.8283C117.619 100.637 118.529 103.572 120.697 105.726M52.2999 85.7244L123.162 94.7576M226.7 24.2752L224.232 26.7573M226.7 24.2752C226.7 24.2752 226.7 24.2752 226.7 24.2752L224.232 26.7573M226.7 24.2752C230.433 27.9868 230.433 34.013 226.7 37.7246L146.239 117.724L146.239 117.724C142.517 121.425 136.492 121.425 132.77 117.726L132.77 117.726L120.697 105.726M224.232 26.7573C226.589 29.1003 226.589 32.8994 224.232 35.2426L143.771 115.242C141.414 117.586 137.594 117.586 135.237 115.243L123.164 103.243M120.697 105.726L123.164 103.243M120.697 105.726L120.696 105.726L123.164 103.243M123.164 103.243C120.806 100.901 120.806 97.1016 123.162 94.7576M123.162 94.7576C125.518 92.4144 129.34 92.4136 131.697 94.7568L139.503 102.515L123.162 94.7576Z" fill="#5E94FF" stroke="white" stroke-width="7"/>
</svg>
